<?xml version="1.0" standalone="no"?>
<!DOCTYPE svg PUBLIC "-//W3C//DTD SVG 20010904//EN"
 "http://www.w3.org/TR/2001/REC-SVG-20010904/DTD/svg10.dtd">
<svg version="1.0" xmlns="http://www.w3.org/2000/svg"
 width="256.000000pt" height="256.000000pt" viewBox="0 0 256.000000 256.000000"
 preserveAspectRatio="xMidYMid meet">
<metadata>
Created by potrace 1.11, written by Peter Selinger 2001-2013
</metadata>
<g transform="translate(0.000000,256.000000) scale(0.100000,-0.100000)"
fill="#000000" stroke="none">
<path d="M224 2531 c4 -6 -3 -9 -20 -8 -19 1 -28 -3 -30 -15 -1 -10 2 -18 7
-18 6 0 8 -4 4 -9 -3 -5 1 -15 8 -23 13 -13 32 -66 29 -80 -1 -5 3 -8 9 -8 6
0 8 -7 5 -16 -3 -8 -2 -13 3 -10 5 3 12 -1 15 -10 4 -10 2 -13 -7 -9 -6 4 -4
0 5 -8 10 -8 15 -17 12 -20 -3 -3 6 -25 20 -50 14 -24 26 -50 26 -57 0 -7 8
-19 18 -27 9 -8 12 -12 5 -8 -9 4 -8 -3 2 -21 8 -15 11 -32 8 -37 -4 -6 1 -8
12 -3 15 5 16 4 5 -9 -10 -12 -10 -15 3 -15 10 0 14 -9 13 -29 -1 -17 1 -28 5
-25 5 2 13 -4 18 -15 8 -14 8 -21 -2 -24 -7 -3 -5 -6 5 -6 11 -1 16 -8 13 -21
-2 -11 0 -18 4 -15 8 5 26 -41 23 -57 -1 -5 3 -8 9 -8 5 0 8 -4 5 -9 -3 -5 1
-12 10 -15 8 -3 12 -11 9 -17 -4 -5 1 -20 12 -31 12 -14 13 -19 3 -13 -10 6
-9 2 3 -12 10 -11 19 -30 20 -42 1 -11 5 -21 10 -21 4 0 5 -4 2 -10 -3 -5 -1
-10 5 -10 6 0 8 -4 5 -10 -3 -5 -1 -10 4 -10 6 0 11 -9 11 -20 0 -11 5 -20 11
-20 5 0 8 -4 4 -9 -3 -5 -1 -12 4 -16 6 -3 7 -13 4 -22 -4 -11 -3 -14 5 -9 8
4 12 0 12 -11 0 -10 7 -27 15 -37 8 -10 12 -23 9 -27 -3 -5 0 -9 7 -9 7 0 9
-3 6 -7 -4 -3 3 -21 14 -40 11 -18 18 -33 15 -33 -4 0 0 -10 9 -23 8 -13 12
-27 8 -30 -3 -4 -1 -7 6 -7 7 0 9 -4 6 -10 -3 -5 -2 -10 3 -10 6 0 13 -7 16
-16 4 -10 2 -13 -7 -8 -6 4 -3 -2 7 -14 11 -12 15 -22 10 -22 -5 0 -3 -4 4 -9
12 -7 18 -25 21 -54 1 -5 5 -5 11 -2 6 3 7 -1 4 -10 -4 -8 0 -22 7 -31 7 -9
14 -23 15 -32 2 -8 6 -18 11 -21 5 -3 8 -13 8 -21 0 -8 6 -21 13 -29 7 -7 11
-20 8 -27 -3 -7 4 -16 16 -20 16 -5 18 -8 7 -15 -11 -7 -11 -9 -1 -9 7 0 10
-4 7 -10 -3 -5 -1 -10 5 -10 6 0 9 -4 5 -9 -3 -5 1 -15 8 -23 8 -7 12 -19 9
-26 -2 -6 1 -12 7 -12 6 0 11 -9 11 -19 0 -11 7 -27 16 -35 12 -12 12 -16 2
-16 -9 -1 -7 -5 4 -14 10 -7 15 -16 11 -19 -3 -4 2 -9 11 -13 13 -5 14 -9 5
-20 -9 -11 -8 -14 6 -14 10 0 16 -3 12 -6 -3 -4 1 -20 9 -36 9 -16 13 -36 10
-44 -3 -8 -2 -12 4 -9 5 3 14 -3 19 -14 8 -14 8 -21 -2 -24 -7 -3 -5 -6 6 -6
9 -1 16 -4 15 -8 -3 -17 15 -63 25 -63 6 0 7 -3 4 -7 -4 -3 1 -15 10 -26 10
-11 12 -17 6 -13 -9 5 -11 2 -7 -8 3 -9 10 -13 15 -10 5 3 6 -1 3 -9 -3 -8 3
-23 13 -32 10 -10 17 -21 16 -24 -6 -14 20 -71 29 -65 6 4 8 -1 3 -15 -4 -12
-2 -21 4 -21 6 0 11 -9 11 -20 0 -11 5 -20 10 -20 6 0 9 -3 9 -7 -1 -5 0 -11
1 -15 4 -13 7 -27 9 -39 0 -5 5 -8 10 -4 6 3 8 -4 6 -15 -2 -11 1 -20 7 -20 5
0 7 -7 4 -16 -3 -9 -2 -12 4 -9 10 6 27 -50 22 -68 -1 -5 2 -6 7 -3 5 3 11 -1
15 -9 7 -20 19 -19 43 2 10 10 14 14 7 10 -7 -5 -15 -3 -20 4 -4 8 -3 9 4 5 7
-4 12 -3 12 3 0 5 8 12 18 14 16 4 16 5 -1 6 -10 0 -15 6 -12 11 4 6 11 8 16
5 13 -9 11 9 -2 22 -9 9 -7 11 8 7 12 -3 24 -1 27 5 4 6 1 9 -7 5 -8 -3 -14 1
-14 10 0 8 4 13 9 10 4 -3 8 0 8 6 0 6 6 8 13 4 6 -4 3 3 -8 16 l-20 23 22
-12 c16 -8 24 -8 29 1 4 6 3 8 -4 4 -6 -3 -13 -2 -16 3 -3 5 1 12 10 15 10 4
14 12 10 22 -5 12 -2 15 9 10 9 -3 13 -2 10 4 -7 11 22 71 39 82 8 5 7 8 -1 8
-7 0 -18 -9 -25 -20 -7 -11 -17 -20 -22 -20 -5 0 0 10 12 23 12 13 19 26 16
30 -4 4 1 9 10 13 9 3 16 15 16 26 0 10 4 17 9 13 5 -3 12 -1 15 4 4 5 1 13
-5 17 -8 5 -9 3 -4 -6 5 -9 4 -11 -4 -6 -14 9 -3 29 13 23 7 -3 13 5 14 20 1
14 -2 21 -8 18 -16 -10 -11 1 7 16 14 12 16 12 8 0 -6 -10 -4 -12 4 -6 7 4 11
18 8 32 -3 17 -1 23 9 19 7 -3 18 3 26 12 7 9 8 13 2 9 -7 -4 -14 0 -18 8 -3
8 -1 17 5 20 5 4 7 11 4 16 -4 5 2 6 12 2 17 -6 17 -5 -1 15 -11 12 -14 22 -8
22 7 0 12 -4 12 -10 0 -5 5 -10 11 -10 5 0 8 4 5 9 -8 13 4 42 15 35 17 -10 9
9 -8 22 -17 12 -16 13 3 8 12 -3 25 0 30 7 5 9 2 11 -9 6 -10 -3 -17 -2 -17 3
0 6 7 10 15 10 8 0 15 5 15 11 0 5 -6 7 -12 3 -9 -5 -9 -2 1 9 15 19 26 23 15
5 -4 -7 -3 -8 4 -4 8 4 8 15 2 31 -7 19 -6 23 5 19 10 -4 13 0 10 15 -2 13 1
21 9 21 8 0 12 10 11 25 -2 14 1 25 6 25 6 0 7 5 3 12 -4 7 -3 8 5 4 6 -4 8
-13 5 -19 -5 -9 -3 -9 6 0 11 10 11 15 -1 29 -9 12 -10 15 -1 10 12 -7 16 4
12 34 -1 8 1 12 5 8 10 -10 45 34 37 47 -11 18 -9 42 4 42 7 0 11 -4 8 -9 -3
-4 2 -5 12 -1 14 5 13 8 -6 18 -19 10 -20 13 -6 18 12 5 15 3 10 -6 -5 -8 -2
-7 9 2 18 14 22 22 10 20 -23 -4 -25 3 -4 14 14 6 26 19 29 27 3 9 -1 8 -10
-4 -12 -15 -17 -16 -23 -6 -6 9 -4 11 5 5 10 -6 12 -3 8 12 -4 16 -1 19 17 17
23 -2 29 17 10 33 -4 4 -5 3 -1 -4 3 -6 2 -14 -3 -17 -5 -4 -8 2 -6 11 1 10
10 17 19 17 8 -1 14 2 11 6 -3 5 2 16 11 24 8 9 12 16 7 16 -5 0 -14 -5 -19
-10 -7 -7 -11 -6 -11 5 0 8 2 13 5 10 3 -2 13 0 22 5 12 7 16 17 12 32 -4 17
-2 20 11 15 11 -4 14 -2 10 8 -3 8 -10 12 -16 8 -6 -4 -1 10 11 30 13 22 17
37 10 37 -7 0 -4 6 7 13 12 9 15 19 10 28 -5 8 -5 11 0 7 4 -4 16 -3 27 3 16
9 17 13 6 27 -11 13 -11 15 5 9 9 -3 17 -2 17 3 0 6 -6 10 -12 10 -10 0 -9 3
1 9 9 6 11 16 6 32 -7 22 -7 22 9 6 24 -23 27 -21 16 9 -7 16 -7 23 0 19 14
-8 13 8 -1 22 -9 9 -7 11 9 6 17 -4 20 -1 15 18 -5 18 -3 21 11 16 13 -5 15
-3 8 11 -11 20 -5 42 10 42 6 0 5 -8 -3 -17 -13 -16 -12 -17 4 -4 14 11 15 16
5 29 -11 13 -10 15 5 9 11 -4 17 -2 16 6 -3 25 1 38 11 32 5 -3 7 0 4 8 -3 8
0 18 6 22 8 5 7 11 -2 23 -11 13 -11 14 1 7 11 -6 13 -4 8 8 -3 9 0 29 8 44 8
15 15 22 15 15 0 -7 5 -10 10 -7 7 4 6 14 -2 28 -10 20 -10 21 6 8 15 -13 16
-12 6 15 l-10 29 19 -23 20 -23 -3 27 c-2 14 -9 30 -17 36 -10 7 -8 8 8 3 19
-5 22 -3 16 11 -4 11 -3 15 5 10 6 -4 11 2 11 14 1 11 1 29 2 40 0 12 5 18 11
14 8 -5 9 -1 5 10 -4 9 -3 14 2 11 5 -3 12 -1 16 5 4 6 12 7 18 3 9 -5 9 -3 1
8 -17 22 -23 58 -12 66 7 3 8 1 4 -5 -4 -7 -2 -12 4 -12 6 0 9 -4 6 -8 -3 -5
1 -9 9 -9 10 0 12 4 5 12 -7 9 -6 16 5 25 11 9 12 17 4 32 -8 16 -8 19 1 13 8
-5 10 -2 6 11 -7 22 2 38 27 47 15 6 16 10 6 29 -12 22 -11 22 6 8 17 -14 18
-14 7 7 -10 19 -9 24 7 32 10 6 22 7 27 3 5 -4 3 0 -4 9 -10 14 -10 18 3 23 8
3 15 11 15 18 0 10 -2 10 -9 0 -7 -11 -9 -10 -14 3 -4 9 -3 14 2 11 11 -7 25
23 22 44 -2 11 1 11 11 -3 12 -16 13 -15 13 8 0 15 -6 25 -15 26 -10 0 -8 3 5
9 17 7 17 9 3 9 -10 1 -18 6 -18 12 0 6 -9 8 -20 4 -13 -4 -20 -2 -20 7 0 9
-3 9 -8 2 -7 -12 -80 -13 -98 -1 -6 3 -14 3 -18 0 -9 -10 -87 -11 -107 -2 -8
4 -21 4 -29 -1 -8 -5 -22 -4 -33 2 -14 7 -17 7 -13 -1 4 -6 -4 -9 -23 -6 -23
3 -32 -1 -36 -16 -4 -11 -11 -16 -17 -13 -7 4 -8 2 -4 -4 4 -7 4 -18 -1 -24
-4 -7 -8 -15 -9 -18 -2 -13 -30 -66 -37 -71 -5 -3 -8 -9 -7 -13 3 -14 -33 -95
-41 -91 -4 3 -6 -6 -3 -21 3 -14 1 -23 -5 -20 -8 5 -26 -39 -23 -56 1 -5 -2
-8 -7 -8 -5 0 -12 -13 -16 -30 -4 -16 -11 -30 -17 -30 -6 0 -8 -7 -4 -15 3 -8
1 -15 -5 -15 -6 0 -7 -5 -4 -10 3 -6 -1 -13 -9 -16 -9 -3 -13 -10 -10 -15 3
-5 1 -9 -5 -9 -6 0 -8 -7 -5 -15 4 -8 1 -15 -5 -15 -6 0 -10 -3 -9 -7 4 -15
-13 -53 -21 -48 -5 2 -7 -6 -6 -20 2 -13 -3 -26 -11 -29 -8 -3 -14 -14 -14
-25 0 -11 -5 -23 -10 -26 -6 -4 -8 -11 -5 -16 4 -5 0 -12 -9 -15 -8 -3 -12
-12 -9 -20 3 -8 0 -14 -7 -14 -6 0 -9 -4 -5 -9 3 -5 1 -12 -5 -16 -6 -4 -8
-11 -5 -16 4 -5 1 -9 -5 -9 -7 0 -9 -7 -6 -16 3 -8 2 -13 -3 -10 -5 3 -12 -10
-15 -29 -5 -27 -10 -33 -24 -28 -15 6 -15 5 -3 -10 9 -12 10 -17 2 -17 -7 0
-10 -4 -6 -9 3 -6 -3 -14 -12 -20 -12 -7 -13 -10 -4 -11 10 0 11 -3 2 -13 -6
-8 -7 -18 -3 -22 4 -5 1 -5 -5 -1 -12 6 -18 -5 -14 -26 0 -5 -4 -8 -9 -8 -6 0
-9 -3 -9 -7 3 -21 -2 -33 -13 -27 -6 4 -8 3 -5 -2 3 -6 -3 -29 -13 -52 -11
-23 -16 -42 -12 -42 4 0 2 -4 -5 -8 -6 -4 -13 -14 -15 -22 -2 -8 -8 -20 -15
-28 -7 -7 -9 -20 -6 -29 4 -11 3 -14 -5 -9 -11 6 -17 -12 -13 -36 0 -5 -4 -8
-10 -8 -5 0 -7 -4 -4 -10 3 -5 2 -10 -4 -10 -6 0 -15 -18 -21 -40 -6 -22 -15
-40 -20 -40 -5 0 -6 -7 -3 -17 4 -11 3 -14 -5 -9 -8 5 -10 2 -6 -8 3 -9 1 -16
-5 -16 -6 0 -11 -9 -11 -19 0 -11 -5 -23 -10 -26 -6 -4 -8 -11 -5 -16 4 -5 2
-9 -4 -9 -5 0 -13 9 -16 20 -4 11 -10 18 -15 15 -5 -3 -7 4 -5 15 2 11 -1 20
-6 20 -6 0 -7 5 -4 10 3 6 1 10 -5 10 -6 0 -8 5 -4 12 5 8 1 9 -12 4 -14 -5
-16 -4 -7 5 8 8 5 24 -17 65 -15 29 -24 52 -20 49 3 -2 7 2 7 9 0 8 -7 12 -15
8 -10 -3 -13 -1 -8 6 4 7 2 12 -4 12 -8 0 -8 6 0 20 9 16 8 18 -5 14 -11 -5
-14 -2 -8 12 4 12 3 15 -5 10 -8 -5 -12 0 -12 13 0 12 -6 21 -12 21 -10 0 -10
2 0 9 11 6 10 10 -4 15 -16 6 -16 8 -4 16 13 8 13 10 0 10 -9 0 -16 9 -17 20
-1 11 -9 27 -17 35 -8 9 -12 23 -9 32 4 10 2 14 -4 10 -6 -4 -14 0 -17 9 -3 8
-2 12 4 9 6 -3 1 10 -11 29 -12 20 -18 36 -14 36 3 0 -1 7 -10 16 -9 9 -14 23
-11 31 3 7 -1 16 -9 19 -8 4 -13 10 -10 14 3 5 1 11 -5 15 -5 3 -10 11 -10 16
0 6 5 7 12 3 7 -4 8 -3 4 5 -4 6 -12 9 -17 6 -8 -6 -13 9 -10 29 1 4 -6 15
-16 23 -10 8 -11 11 -3 7 11 -6 10 -2 -3 13 -9 11 -14 23 -10 26 3 4 1 7 -6 7
-7 0 -9 5 -6 10 3 6 0 10 -7 10 -9 0 -9 3 2 10 13 8 12 10 -3 10 -10 0 -16 4
-12 9 3 5 -1 15 -8 23 -8 7 -12 19 -9 26 2 6 -5 12 -15 13 -16 0 -16 1 2 9
l20 9 -20 0 c-15 1 -17 3 -7 10 11 7 10 9 -3 15 -9 3 -13 10 -10 16 3 5 3 10
-2 10 -9 0 -28 41 -37 83 -4 15 -11 25 -16 22 -6 -3 -7 1 -4 9 4 10 1 16 -7
16 -12 0 -12 2 -1 9 11 7 10 9 -3 15 -9 3 -13 10 -10 16 3 5 1 10 -5 10 -6 0
-9 4 -5 9 3 5 -2 17 -11 25 -8 9 -13 16 -10 16 4 0 -3 18 -14 41 -12 23 -19
47 -16 55 3 8 0 13 -7 11 -7 -1 -11 4 -9 11 1 6 -2 12 -8 12 -5 0 -10 9 -10
19 0 11 -5 23 -11 26 -6 4 -8 14 -5 22 3 8 1 11 -4 8 -9 -6 -12 -2 -14 27 -2
24 -42 58 -64 53 -12 -2 -24 1 -27 6 -4 5 -12 6 -18 2 -18 -11 -117 -10 -117
2 0 6 -3 6 -8 -1 -8 -12 -80 -13 -99 -1 -6 4 -14 3 -18 -3 -4 -7 -13 -6 -27 1
-14 7 -18 7 -14 0z m2020 -352 c-3 -5 -10 -7 -15 -3 -5 3 -7 10 -3 15 3 5 10
7 15 3 5 -3 7 -10 3 -15z m-174 -383 c0 -2 -8 -10 -17 -17 -16 -13 -17 -12 -4
4 13 16 21 21 21 13z m-37 -51 c-3 -9 -8 -14 -10 -11 -3 3 -2 9 2 15 9 16 15
13 8 -4z m-108 -273 c-3 -3 -11 0 -18 7 -9 10 -8 11 6 5 10 -3 15 -9 12 -12z
m-80 -172 c3 -5 1 -10 -4 -10 -6 0 -11 5 -11 10 0 6 2 10 4 10 3 0 8 -4 11
-10z m-116 -273 c-2 -1 -13 -9 -24 -17 -19 -14 -19 -14 -6 3 7 9 18 17 24 17
6 0 8 -1 6 -3z m-334 -716 c3 -5 2 -12 -3 -15 -5 -3 -9 1 -9 9 0 17 3 19 12 6z"/>
<path d="M2264 2249 c-3 -6 -2 -15 3 -20 5 -5 9 -1 10 11 2 22 -2 25 -13 9z"/>
<path d="M2084 1849 c-3 -6 -2 -15 3 -20 5 -5 9 -1 10 11 2 22 -2 25 -13 9z"/>
<path d="M1902 1429 c-14 -22 -7 -25 14 -5 8 8 11 17 6 20 -4 2 -13 -4 -20
-15z"/>
<path d="M1888 1383 c7 -3 16 -2 19 1 4 3 -2 6 -13 5 -11 0 -14 -3 -6 -6z"/>
<path d="M1651 834 c0 -11 3 -14 6 -6 3 7 2 16 -1 19 -3 4 -6 -2 -5 -13z"/>
<path d="M1280 40 c-9 -6 -10 -10 -3 -10 6 0 15 5 18 10 8 12 4 12 -15 0z"/>
</g>
</svg>
